<?xml version="1.0" encoding="UTF-8" standalone="no"?>
<!-- Created with Inkscape (http://www.inkscape.org/) -->

<svg
   xmlns:dc="http://purl.org/dc/elements/1.1/"
   xmlns:cc="http://creativecommons.org/ns#"
   xmlns:rdf="http://www.w3.org/1999/02/22-rdf-syntax-ns#"
   xmlns:svg="http://www.w3.org/2000/svg"
   xmlns="http://www.w3.org/2000/svg"
   xmlns:xlink="http://www.w3.org/1999/xlink"
   xmlns:sodipodi="http://sodipodi.sourceforge.net/DTD/sodipodi-0.dtd"
   xmlns:inkscape="http://www.inkscape.org/namespaces/inkscape"
   width="400"
   height="164.69791"
   viewBox="0 0 400 164.6979"
   id="svg2"
   version="1.1"
   inkscape:version="0.91 r13725"
   sodipodi:docname="logo.svg">
  <defs
     id="defs4">
    <linearGradient
       inkscape:collect="always"
       id="linearGradient4144">
      <stop
         style="stop-color:#45145a;stop-opacity:1"
         offset="0"
         id="stop4146" />
      <stop
         style="stop-color:#ff5300;stop-opacity:1"
         offset="1"
         id="stop4148" />
    </linearGradient>
    <linearGradient
       inkscape:collect="always"
       xlink:href="#linearGradient4144"
       id="linearGradient4192"
       x1="-634.57715"
       y1="631.29956"
       x2="1642.1293"
       y2="-245.51285"
       gradientUnits="userSpaceOnUse"
       gradientTransform="matrix(0.4314331,0,0,0.4314331,182.9579,301.53589)" />
  </defs>
  <sodipodi:namedview
     id="base"
     pagecolor="#ffffff"
     bordercolor="#666666"
     borderopacity="1.0"
     inkscape:pageopacity="0.0"
     inkscape:pageshadow="2"
     inkscape:zoom="0.98994949"
     inkscape:cx="-11.021456"
     inkscape:cy="54.439439"
     inkscape:document-units="px"
     inkscape:current-layer="layer1"
     showgrid="false"
     fit-margin-top="0"
     fit-margin-left="0"
     fit-margin-right="0"
     fit-margin-bottom="0"
     showborder="false"
     units="px"
     inkscape:window-width="1600"
     inkscape:window-height="838"
     inkscape:window-x="-8"
     inkscape:window-y="-8"
     inkscape:window-maximized="1" />
  <metadata
     id="metadata7">
    <rdf:RDF>
      <cc:Work
         rdf:about="">
        <dc:format>image/svg+xml</dc:format>
        <dc:type
           rdf:resource="http://purl.org/dc/dcmitype/StillImage" />
        <dc:title />
      </cc:Work>
    </rdf:RDF>
  </metadata>
  <g
     inkscape:label="Layer 1"
     inkscape:groupmode="layer"
     id="layer1"
     transform="translate(-207.27657,-301.53589)">
    <path
       inkscape:connector-curvature="0"
       style="font-style:normal;font-weight:normal;font-size:546.13110352px;line-height:125%;font-family:sans-serif;letter-spacing:0px;word-spacing:0px;fill:url(#linearGradient4192);fill-opacity:1;fill-rule:nonzero;stroke:none;stroke-width:1px;stroke-linecap:butt;stroke-linejoin:miter;stroke-opacity:1"
       d="m 208.69052,301.53589 0,61.61067 40.05503,0 0,-30.27363 44.29604,0 -25.27422,30.27363 70.42977,0 25.53039,-30.27363 -0.47104,-31.33704 -154.56597,0 z m 167.01686,0 0,31.10194 14.844,0 0,30.50873 48.773,0 0,-30.50873 14.6089,0 0,-31.10194 -78.2259,0 z m 90.19817,0 0,30.866 13.1941,0 0,30.74467 48.30196,0 0,-30.98061 11.78099,0 c 13.66591,0 21.91293,7.54037 21.91293,21.44189 0,3.66047 -0.8156,6.85105 -2.30463,9.53872 l 47.13828,0 c 0.88036,-3.47457 1.34739,-7.2034 1.34739,-11.18861 0,-26.86057 -10.36734,-50.42206 -65.03096,-50.42206 l -76.34006,0 z m -238.27326,109.68513 -20.35572,24.38186 0,30.63091 155.74398,0 0,-55.01277 -41.70408,0 0,23.91083 -43.82585,0 20.16444,-23.91083 -70.02277,0 z m 162.91909,0 0,23.67489 -14.844,0 0,31.33788 78.2259,0 0,-31.33788 -14.6089,0 0,-23.67489 -48.773,0 z m 88.54827,0 0,23.91083 -13.1941,0 0,31.10194 75.86903,0 0,-31.10194 -14.37297,0 0,-23.91083 -48.30196,0 z"
       id="text4136" />
    <text
       xml:space="preserve"
       style="font-style:normal;font-weight:normal;font-size:102.42990112px;line-height:125%;font-family:sans-serif;letter-spacing:0px;word-spacing:0px;fill:#ffffff;fill-opacity:1;stroke:none;stroke-width:1px;stroke-linecap:butt;stroke-linejoin:miter;stroke-opacity:1;"
       x="223.5694"
       y="399.1666"
       id="text4140"
       sodipodi:linespacing="125%"><tspan
         sodipodi:role="line"
         id="tspan4142"
         x="223.5694"
         y="399.1666"
         style="font-style:normal;font-variant:normal;font-weight:300;font-stretch:normal;font-size:38.82897949px;font-family:'Sansation Light';-inkscape-font-specification:'Sansation Light, Light';letter-spacing:17.24874115px;fill:#ffffff;fill-opacity:1;">Starter Kit</tspan></text>
  </g>
</svg>
